<svg width="100" height="100" viewBox="0 0 216 196.039"   xmlns="http://www.w3.org/2000/svg" xmlns:xlink="http://www.w3.org/1999/xlink">

	<defs/>
	<path id="Path" d="M107.99 0C48.35 0 0 44.99 0 100.51C0 144.9 30.94 182.57 73.85 195.86C79.26 196.78 81.23 193.68 81.23 191.02C81.23 188.63 81.13 182.31 81.08 173.92C51.04 180 44.7 160.46 44.7 160.46C39.79 148.84 32.71 145.75 32.71 145.75C22.9 139.52 33.45 139.64 33.45 139.64C44.29 140.35 49.99 150 49.99 150C59.63 165.36 75.27 160.92 81.43 158.35C82.41 151.85 85.2 147.42 88.28 144.91C64.3 142.38 39.09 133.75 39.09 95.24C39.09 84.27 43.3 75.3 50.2 68.27C49.09 65.73 45.38 55.52 51.27 41.68C51.27 41.68 60.33 38.98 80.96 51.98C89.57 49.75 98.82 48.64 108 48.6C117.17 48.64 126.41 49.75 135.03 51.98C155.66 38.98 164.7 41.68 164.7 41.68C170.6 55.52 166.89 65.73 165.79 68.27C172.71 75.3 176.88 84.27 176.88 95.24C176.88 133.85 151.63 142.35 127.58 144.83C131.45 147.94 134.9 154.07 134.9 163.45C134.9 176.88 134.77 187.72 134.77 191.02C134.77 193.7 136.72 196.83 142.2 195.85C185.08 182.54 216 144.89 216 100.51C216 44.99 167.64 0 107.99 0Z" fill="#333333" fill-opacity="1.000000" fill-rule="evenodd"/>
</svg>
