<svg width="100" height="100" viewBox="0 0 168.637 154.041"   xmlns="http://www.w3.org/2000/svg" xmlns:xlink="http://www.w3.org/1999/xlink">
	<desc>
			Created with Pixso.
	</desc>
	<defs/>
	<path id="Shape" d="M31.4116 77.6483C24.4297 73.5783 16.3917 68.8923 7.403 63.6453C0.611305 59.6853 -1.22657 51.0723 0.748619 45.9353C2.73437 40.8093 7.36074 36.8823 13.1279 35.4193C49.3889 26.2673 115.658 9.52531 151.053 0.593307C155.891 -0.627686 161.594 -0.0556946 165.143 3.16731C169.791 7.39131 168.904 13.9143 167.562 18.3143C157.729 50.4783 139.973 108.602 129.896 141.569C128.291 146.816 124.277 151.546 118.732 153.35C110.387 155.979 103.891 150.567 100.511 146.09C93.9099 137.334 87.8153 129.227 82.5446 122.187L49.6213 148.07C46.1779 150.776 41.5621 151.216 37.7068 149.214C33.8409 147.212 31.4116 143.109 31.4116 138.621L31.4116 77.6483ZM71.0527 88.1093C68.8451 90.1003 67.0812 92.5643 65.8665 95.3143C62.8985 102.068 56.9412 115.598 52.5472 125.553C52.0508 126.675 50.8678 127.28 49.7165 126.983C48.5546 126.697 47.7624 125.597 47.8258 124.354C48.4278 111.198 49.3256 91.7283 49.7587 82.4443C49.9066 79.1553 51.7022 76.1963 54.4907 74.6453C66.2573 68.0783 98.5047 50.1153 118.901 38.7523C119.915 38.1913 121.161 38.5103 121.816 39.4893C122.46 40.4793 122.302 41.8103 121.436 42.5913C105.032 57.4083 80.0203 80.0133 71.0527 88.1093Z" clip-rule="evenodd" fill="#333333" fill-opacity="1.000000" fill-rule="evenodd"/>
</svg>
